<?xml version="1.0" encoding="utf-8"?>
<!-- Generator: Adobe Illustrator 27.3.1, SVG Export Plug-In . SVG Version: 6.00 Build 0)  -->
<svg version="1.1" id="Layer_1" xmlns="http://www.w3.org/2000/svg" xmlns:xlink="http://www.w3.org/1999/xlink" x="0px" y="0px"
	 viewBox="0 0 2000 2000" style="enable-background:new 0 0 2000 2000;" xml:space="preserve">
<style type="text/css">
	.st0{fill:url(#SVGID_1_);}
	.st1{fill:#B2B4B8;}
	.st2{fill:#3B1D0D;}
</style>
<g>
	<linearGradient id="SVGID_1_" gradientUnits="userSpaceOnUse" x1="1000" y1="67.9287" x2="1000" y2="1932.0713">
		<stop  offset="0" style="stop-color:#FFFFFF"/>
		<stop  offset="1" style="stop-color:#8F8F8F"/>
	</linearGradient>
	<path class="st0" d="M1000,1932.07c-125.83,0-247.9-24.64-362.8-73.24c-110.99-46.94-210.67-114.15-296.27-199.75
		c-85.6-85.6-152.81-185.28-199.76-296.27c-48.6-114.9-73.24-236.97-73.24-362.8c0-125.83,24.64-247.9,73.24-362.8
		c46.94-110.99,114.15-210.67,199.76-296.27c85.6-85.6,185.28-152.81,296.27-199.76c114.9-48.6,236.97-73.24,362.8-73.24
		c125.83,0,247.9,24.64,362.8,73.24c110.99,46.94,210.67,114.15,296.27,199.76c85.6,85.6,152.81,185.28,199.75,296.27
		c48.6,114.9,73.24,236.97,73.24,362.8c0,125.83-24.64,247.9-73.24,362.8c-46.94,110.99-114.15,210.67-199.75,296.27
		s-185.28,152.81-296.27,199.75C1247.9,1907.43,1125.83,1932.07,1000,1932.07z"/>
	<path class="st1" d="M1000,78.93c62.51,0,124.97,6.3,185.65,18.71c59.13,12.1,117.29,30.15,172.86,53.66
		c54.57,23.08,107.21,51.65,156.45,84.92c48.78,32.95,94.65,70.8,136.33,112.48s79.53,87.55,112.48,136.33
		c33.27,49.24,61.84,101.88,84.92,156.45c23.51,55.58,41.56,113.74,53.66,172.86c12.42,60.68,18.71,123.14,18.71,185.65
		s-6.3,124.97-18.71,185.65c-12.1,59.13-30.15,117.29-53.66,172.86c-23.08,54.57-51.65,107.21-84.92,156.45
		c-32.95,48.78-70.8,94.65-112.48,136.33s-87.55,79.53-136.33,112.48c-49.24,33.27-101.88,61.84-156.45,84.92
		c-55.58,23.51-113.74,41.56-172.86,53.66c-60.68,12.42-123.14,18.71-185.65,18.71s-124.97-6.3-185.65-18.71
		c-59.13-12.1-117.29-30.15-172.86-53.66c-54.57-23.08-107.21-51.65-156.45-84.92c-48.78-32.95-94.65-70.8-136.33-112.48
		s-79.53-87.55-112.48-136.33c-33.27-49.24-61.84-101.88-84.92-156.45c-23.51-55.58-41.56-113.74-53.66-172.86
		c-12.42-60.68-18.71-123.14-18.71-185.65s6.3-124.97,18.71-185.65c12.1-59.13,30.15-117.29,53.66-172.86
		c23.08-54.57,51.65-107.21,84.92-156.45c32.95-48.78,70.8-94.65,112.48-136.33s87.55-79.53,136.33-112.48
		c49.24-33.27,101.88-61.84,156.45-84.92c55.58-23.51,113.74-41.56,172.86-53.66C875.03,85.22,937.49,78.93,1000,78.93 M1000,56.93
		C479.16,56.93,56.93,479.16,56.93,1000s422.23,943.07,943.07,943.07s943.07-422.23,943.07-943.07S1520.84,56.93,1000,56.93
		L1000,56.93z"/>
</g>
<g>
	<path class="st2" d="M1135.83,1029.19c3.12,3.77,8.57,4.44,12.52,1.56c6.28-4.58,12.64-9.01,18.99-13.23
		c39.96-26.53,82.34-46.94,125.3-60.56c3.5-1.11,6.05-4.13,6.42-7.79c4.25-41.18,3.63-84.29-2.09-127.88
		c-10.85-82.64-38.81-158.82-80.86-220.31c-20.24-29.59-43.11-54.73-67.97-74.73c-25.21-20.27-51.88-34.77-79.26-43.08
		c-1.52-0.46-3.14-0.1-4.33,0.96c-1.2,1.07-1.74,2.65-1.45,4.23c1.62,8.78,3,17.81,4.09,26.84c8.87,73.57-3.13,147.13-18.5,228.77
		c-0.87,4.64-1.75,9.29-2.63,13.93c-6.17,32.56-12.54,66.23-17.06,99.63c-1.28,9.46-2.39,18.78-3.31,27.7
		c-0.02,0.16-0.08,0.88-0.15,1.61c0,0.03-0.01,0.05-0.01,0.08l-0.01,0l0,0c0,0,0,0.01,0,0.01l-0.31,3.39
		c-0.2,2.27-0.4,4.54-0.58,6.81c-0.34,4.22-0.65,8.52-0.93,12.77c-0.18,2.75-0.34,5.51-0.49,8.27c-0.17,3.06,1.24,6,3.69,7.84
		C1068.17,956.98,1104.83,991.78,1135.83,1029.19z"/>
	<path class="st2" d="M976.31,893.09c3.09,1.92,6.15,3.86,9.2,5.82c1.67-20.51,4.06-41.4,7.21-62.51
		c4.28-28.68,9.77-57.65,15.08-85.66c1.75-9.26,3.51-18.51,5.22-27.78c2.81-15.19,6.44-35.26,9.55-55.86
		c1.5-9.89,2.75-19.06,3.84-28.02c0.56-4.6,1.12-9.62,1.77-15.8c0.04-0.36,0.13-1.34,0.17-1.73l0.1-1.07
		c0.21-2.35,0.41-4.69,0.6-7.04c3.18-39.62,2.17-75.44-3.08-109.51l-0.53-3c-0.11-0.6-0.21-1.21-0.33-1.81
		c-0.4-2.21-0.83-4.43-1.27-6.6c-0.33-1.62-0.66-3.24-1.01-4.86c-1.39-6.46-7.19-11.07-13.79-10.85c-5.73,0.19-11.46,0.66-17.1,1.4
		c-34.5,4.53-66.65,18.94-95.56,42.82c-27.91,23.06-51.63,53.93-70.52,91.76c-27.6,55.29-42.68,121.05-44.33,190.75
		c-0.1,4.3,2.84,8.06,7.02,9.1C852.5,828.53,916.21,855.74,976.31,893.09z"/>
	<g>
		<path class="st2" d="M698.9,839.78c-41.15-3.58-80.25-1.56-116.22,5.99c-36.47,7.66-68.86,20.83-96.27,39.17
			c-1.52,1.02-2.38,2.72-2.3,4.56c0.08,1.85,1.09,3.49,2.71,4.38c9.01,4.97,18.06,10.33,26.9,15.95
			c72.04,45.82,128.82,110.23,190.33,183.54c3.5,4.17,6.99,8.34,10.49,12.52c24.51,29.27,49.85,59.53,76.31,87.96
			c7.5,8.05,14.99,15.85,22.27,23.17c0.13,0.13,0.72,0.71,1.33,1.31c0.02,0.02,0.04,0.04,0.06,0.06l-0.01,0.01h0
			c0,0,0.01,0,0.01,0.01l2.79,2.75c1.87,1.84,3.75,3.66,5.64,5.49c3.51,3.38,7.11,6.8,10.7,10.16
			c15.49,14.47,31.69,28.61,48.16,42.02c33.1,26.96,68.45,52,105.06,74.42c4.72,2.89,9.54,5.79,14.34,8.61
			c0.45,0.27,1.57,0.91,2.61,1.52c0.56,0.33,1.1,0.64,1.49,0.87l-0.01,0.01l0,0c0,0,0.01,0,0.01,0.01l0.93,0.54
			c1.41,0.81,2.83,1.62,4.25,2.42c9.35,5.29,18.95,10.51,28.51,15.52c18.78,9.82,38.16,19.15,57.6,27.73
			c16.05,7.09,32.5,13.82,48.99,20.05c6,2.27,12.83,0.25,16.63-4.92c3.09-4.21,6.02-8.54,8.75-12.94
			c15.91-25.61,25.88-54.11,29.77-85.05c1.28-10.2,1.9-20.66,1.86-31.37c-0.16-41.7-10.35-85.39-30.26-129.84
			c-40.94-91.38-118.39-175.82-218.09-237.78C872.7,877.92,784.4,847.21,698.9,839.78z"/>
		<path class="st2" d="M744.02,1209.51c-22.43-24.76-44.23-50.8-65.32-75.99c-6.97-8.32-13.94-16.64-20.94-24.94
			c-11.48-13.59-26.72-31.48-42.8-49.3c-7.72-8.56-14.97-16.37-22.16-23.89c-3.69-3.86-7.75-8.02-12.79-13.11
			c-0.29-0.3-1.1-1.1-1.42-1.41l-0.88-0.87c-1.94-1.9-3.88-3.79-5.83-5.68c-32.98-31.76-65.64-57.02-99.83-77.22l-3.06-1.72
			c-0.62-0.34-1.23-0.69-1.85-1.03c-2.26-1.25-4.55-2.49-6.81-3.69c-2.02-1.07-4.06-2.14-6.11-3.18
			c-6.18-3.15-13.74-1.51-17.99,3.98c-4.28,5.53-8.29,11.29-11.95,17.18c-21.16,34.05-31.8,73.22-31.63,116.42
			c0.16,41.7,10.35,85.39,30.26,129.84c40.94,91.38,118.39,175.83,218.09,237.78c82.22,51.09,171.18,81.86,257.28,88.98
			c41.43,3.43,80.73,1.17,116.82-6.7c36.61-7.99,69.03-21.58,96.33-40.39c1.26-0.87,2.05-2.18,2.24-3.64
			c0.05-0.42,0.06-0.84,0.01-1.28c-0.22-1.95-1.43-3.55-3.25-4.28c-18.39-7.36-36.7-15.35-54.42-23.74
			c-79.02-37.41-151.96-84.32-216.82-139.44C806.86,1274.71,774.84,1243.53,744.02,1209.51z"/>
	</g>
	<path class="st2" d="M1153.27,1487.64c-0.3,1.37,0.56,2.74,1.94,3.02c27.7,5.68,57.87,6.72,89.61,3.07
		c63.28-7.28,128.15-32.35,187.6-72.51c72.09-48.69,127.29-113.75,155.44-183.2c13.69-33.78,20.23-66.77,19.43-98.04
		c-0.83-32.4-9.54-61.53-25.88-86.58c-2.6-3.99-5.42-7.89-8.4-11.64c-3.65-4.59-10.15-5.79-15.26-2.91c-1.1,0.62-2.2,1.25-3.29,1.88
		c-1.64,0.95-3.3,1.93-4.94,2.92c-0.45,0.27-0.89,0.54-1.34,0.82l-2.21,1.36c-24.75,15.92-48.25,35.59-71.85,60.15
		c-1.4,1.46-2.79,2.92-4.17,4.39l-0.63,0.67c-0.23,0.24-0.81,0.86-1.02,1.09c-3.6,3.93-6.5,7.15-9.13,10.12
		c-5.13,5.8-10.3,11.82-15.8,18.41c-11.46,13.72-22.29,27.48-30.44,37.93c-4.98,6.38-9.93,12.77-14.88,19.17
		c-14.98,19.36-30.47,39.38-46.45,58.45c-21.96,26.2-44.86,50.3-68.08,71.64c-14.3,13.14-29.2,25.71-44.62,37.69
		c-1.97,1.53-3.38,3.67-4.03,6.09c-6.35,23.42-15.84,45.53-28.38,66.07c-4.79,7.85-10.09,15.53-15.74,22.82
		c-8.27,10.69-20.39,17.16-33.62,18.08c-1.1,0.08-2.02,0.83-2.25,1.9L1153.27,1487.64z"/>
	<path class="st2" d="M1534.22,1011.53c-20.6-12.9-44.75-21.89-71.8-26.73c-26.67-4.77-55.52-5.39-85.76-1.85
		c-62.83,7.36-127.22,31.94-186.18,71.09c-5.82,3.86-11.52,7.83-17.11,11.9c-3.97,2.89-4.84,8.41-2.13,12.5
		c15.25,22.98,28.42,46.67,39.25,70.85c22.32,49.82,33.73,99.2,33.92,146.77l0.03,9.38c0.02,4.37,5.18,6.76,8.47,3.89
		c11.38-9.9,22.55-20.28,33.23-30.87c2.57-2.55,5.15-5.15,7.66-7.72c1.35-1.38,2.7-2.77,4.04-4.17l2-2.09c0,0,0,0,0.01-0.01h0
		l-0.01-0.01c0.02-0.02,0.03-0.03,0.04-0.05c0.43-0.45,0.86-0.9,0.95-1c5.2-5.56,10.55-11.47,15.9-17.57
		c18.87-21.53,36.87-44.39,54.29-66.49c2.48-3.15,4.97-6.31,7.45-9.46c43.71-55.37,84.12-104.09,136.19-139.44
		c6.39-4.34,12.94-8.49,19.47-12.35c1.17-0.69,1.89-1.92,1.9-3.29C1536.03,1013.48,1535.36,1012.24,1534.22,1011.53z"/>
</g>
</svg>
